HIERARCHY
ROOT Hips
{
    OFFSET 0.000000 0.000000 0.000000
    CHANNELS 6 Xposition Yposition Zposition Zrotation Xrotation Yrotation
    JOINT Spine
    {
        OFFSET -0.000000 14.517291 0.000000
        CHANNELS 3 Zrotation Xrotation Yrotation
        JOINT Spine1
        {
            OFFSET -0.000000 37.558300 0.000000
            CHANNELS 3 Zrotation Xrotation Yrotation
            JOINT Neck
            {
                OFFSET -0.000000 37.404057 3.400369
                CHANNELS 3 Zrotation Xrotation Yrotation
                JOINT Head
                {
                    OFFSET -0.000000 24.785618 -3.540803
                    CHANNELS 3 Zrotation Xrotation Yrotation
                    End Site
                    {
                        OFFSET -0.000000 35.408028 0.000000
                    }
                }
            }
            JOINT LeftShoulder
            {
                OFFSET 6.992933 33.973492 -0.192664
                CHANNELS 3 Zrotation Xrotation Yrotation
                JOINT LeftArm
                {
                    OFFSET 21.527611 0.000000 0.000000
                    CHANNELS 3 Zrotation Xrotation Yrotation
                    JOINT LeftForeArm
                    {
                        OFFSET 56.353916 0.000000 0.000000
                        CHANNELS 3 Zrotation Xrotation Yrotation
                        JOINT LeftHand
                        {
                            OFFSET 47.774071 0.000000 0.000000
                            CHANNELS 3 Zrotation Xrotation Yrotation
                            End Site
                            {
                                OFFSET 26.556021 0.000000 0.000000
                            }
                        }
                    }
                }
            }
            JOINT RightShoulder
            {
                OFFSET -7.065357 33.973492 -0.192664
                CHANNELS 3 Zrotation Xrotation Yrotation
                JOINT RightArm
                {
                    OFFSET -21.527611 0.000000 0.000000
                    CHANNELS 3 Zrotation Xrotation Yrotation
                    JOINT RightForeArm
                    {
                        OFFSET -56.353916 0.000000 0.000000
                        CHANNELS 3 Zrotation Xrotation Yrotation
                        JOINT RightHand
                        {
                            OFFSET -47.774071 0.000000 0.000000
                            CHANNELS 3 Zrotation Xrotation Yrotation
                            End Site
                            {
                                OFFSET -26.556021 0.000000 0.000000
                            }
                        }
                    }
                }
            }
        }
    }
    JOINT LeftUpLeg
    {
        OFFSET 17.704014 0.000000 0.000000
        CHANNELS 3 Zrotation Xrotation Yrotation
        JOINT LeftLeg
        {
            OFFSET -0.000000 -81.181816 0.000000
            CHANNELS 3 Zrotation Xrotation Yrotation
            JOINT LeftFoot
            {
                OFFSET -0.000000 -62.821102 0.000000
                CHANNELS 3 Zrotation Xrotation Yrotation
                JOINT LeftToeBase
                {
                    OFFSET -0.000000 -11.507608 26.556021
                    CHANNELS 3 Zrotation Xrotation Yrotation
                    End Site
                    {
                        OFFSET -0.000000 0.000000 7.081605
                    }
                }
            }
        }
    }
    JOINT RightUpLeg
    {
        OFFSET -17.704014 0.000000 0.000000
        CHANNELS 3 Zrotation Xrotation Yrotation
        JOINT RightLeg
        {
            OFFSET -0.000000 -81.181816 0.000000
            CHANNELS 3 Zrotation Xrotation Yrotation
            JOINT RightFoot
            {
                OFFSET -0.000000 -62.821102 0.000000
                CHANNELS 3 Zrotation Xrotation Yrotation
                JOINT RightToeBase
                {
                    OFFSET -0.000000 -11.507608 26.556021
                    CHANNELS 3 Zrotation Xrotation Yrotation
                    End Site
                    {
                        OFFSET -0.000000 0.000000 7.081605
                    }
                }
            }
        }
    }
}
MOTION
Frames:    11
Frame Time:    0.008333
14.263403    164.300674    2.406948    -0.822208    7.719995    -38.273220    1.100104    0.362171    0.545154    0.814150    1.047557    0.174033    22.218067    4.154535    17.615915    -12.990117    -0.721035    13.942008    3.143353    8.749643    -14.295954    -33.767250    7.832024    -34.731457    38.957958    -45.842861    -42.940720    -17.740225    -29.253401    -31.452721    -4.213223    3.872063    -3.871269    36.835922    8.254264    75.039055    4.772531    -9.097883    95.451569    7.563453    -12.987741    19.383043    15.804360    -20.499393    0.972951    -14.615877    23.018475    -3.911746    0.443156    -6.385463    36.661156    0.000000    0.000000    0.000000    -13.340750    -1.008469    -4.270695    4.676193    16.094969    -1.783559    20.073292    7.270970    -12.725620    0.000000    0.000000    0.000000    
14.051188    164.183594    2.018507    -0.787929    7.620044    -38.264103    1.071171    0.377436    0.533790    0.767887    1.048927    0.170674    22.150864    4.145276    17.605703    -12.897491    -0.691142    13.954083    3.123225    8.749292    -14.315219    -33.730846    7.815360    -34.687744    39.003639    -45.856628    -42.867867    -17.802574    -29.252836    -31.524580    -4.241281    3.849185    -3.847457    36.819283    8.317677    75.071922    4.765162    -9.143508    95.401627    7.639123    -13.006077    19.409700    15.892696    -20.555326    0.900411    -14.702995    23.089849    -3.873644    0.367057    -6.401414    36.717823    0.000000    0.000000    0.000000    -13.305345    -0.882639    -4.183424    4.669909    15.991844    -1.842315    20.204832    6.853106    -12.508270    0.000000    0.000000    0.000000    
13.837251    164.069534    1.598931    -0.739655    7.537915    -38.229706    1.037477    0.408081    0.498487    0.701438    1.024106    0.159534    22.162285    4.138376    17.627069    -12.882978    -0.688731    13.976098    3.150165    8.769683    -14.286408    -33.731014    7.715524    -34.682503    38.929024    -45.804390    -42.913235    -17.792608    -29.201311    -31.534262    -4.258181    3.860791    -3.839334    36.816185    8.359688    75.134979    4.743916    -9.160446    95.413147    7.582760    -13.014187    19.356281    15.980895    -20.656786    0.863049    -14.760835    23.175657    -3.870227    0.258762    -6.391516    36.756989    0.000000    0.000000    0.000000    -13.259931    -0.795423    -4.136662    4.661994    15.934067    -1.816606    20.345552    6.368186    -12.394789    0.000000    0.000000    0.000000    
13.631767    163.955994    1.189522    -0.676702    7.460287    -38.190384    1.002377    0.447117    0.441899    0.658177    0.952183    0.141502    22.139967    4.201662    17.626415    -12.887204    -0.732694    13.985359    3.105334    8.789541    -14.237711    -33.702564    7.670459    -34.646709    38.854839    -45.801231    -42.981220    -17.716988    -29.223658    -31.516317    -4.313093    3.895311    -3.840809    36.811707    8.409103    75.250992    4.769597    -9.155872    95.400078    7.542071    -13.044283    19.336876    16.046410    -20.804693    0.843494    -14.792433    23.260181    -3.870722    0.101555    -6.305614    36.835564    0.000000    0.000000    0.000000    -13.209065    -0.729375    -4.172028    4.616628    15.907346    -1.903869    20.446377    5.975382    -12.211948    0.000000    0.000000    0.000000    
13.396974    163.830536    0.769407    -0.637174    7.365771    -38.149502    0.947352    0.401450    0.453628    0.631441    1.028039    0.145167    22.120119    4.212517    17.592407    -12.875299    -0.779328    13.950777    3.108513    8.787257    -14.358201    -33.654903    7.640563    -34.595863    38.966717    -45.828056    -42.828632    -17.784060    -29.243746    -31.569809    -4.330695    3.895866    -3.845929    36.768066    8.435548    75.287079    4.754196    -9.239528    95.392860    7.612787    -13.097806    19.340874    16.130827    -20.881561    0.842599    -14.818497    23.343182    -3.859281    -0.030295    -6.322303    36.828144    0.000000    0.000000    0.000000    -13.150407    -0.630020    -4.175849    4.619346    15.906388    -1.930019    20.485548    5.459576    -12.089778    0.000000    0.000000    0.000000    
13.160314    163.695358    0.330491    -0.594296    7.263726    -38.098618    0.879127    0.431304    0.419123    0.614826    1.026512    0.133700    22.093399    4.240052    17.584042    -12.882173    -0.835125    13.943462    3.069319    8.772909    -14.334822    -33.611687    7.588631    -34.578865    38.983280    -45.770004    -42.778980    -17.849232    -29.156990    -31.631296    -4.362170    3.888852    -3.849683    36.783958    8.465672    75.350822    4.787626    -9.197355    95.387840    7.553609    -13.102141    19.335125    16.212273    -20.960728    0.835662    -14.849740    23.422112    -3.856852    -0.151034    -6.329882    36.832909    0.000000    0.000000    0.000000    -13.082575    -0.546614    -4.248788    4.563754    15.971840    -1.800189    20.562206    4.828829    -12.003396    0.000000    0.000000    0.000000    
12.918364    163.573273    -0.097465    -0.568977    7.168225    -38.027500    0.864359    0.442516    0.391985    0.554355    1.040112    0.125377    22.064047    4.254323    17.579992    -12.857420    -0.859561    13.946417    3.076874    8.810370    -14.376687    -33.617832    7.397339    -34.552559    38.770920    -45.707188    -42.928387    -17.719469    -29.149429    -31.571510    -4.393746    3.856467    -3.828797    36.775127    8.524880    75.384941    4.788307    -9.225606    95.389023    7.552721    -13.133144    19.302471    16.301672    -21.033522    0.858665    -14.865882    23.498661    -3.867332    -0.291988    -6.326665    36.828743    0.000000    0.000000    0.000000    -13.013064    -0.428837    -4.293232    4.593832    15.987101    -1.832776    20.568256    4.276083    -11.881234    0.000000    0.000000    0.000000    
12.671524    163.444977    -0.557338    -0.516245    7.086892    -37.982903    0.803368    0.437063    0.381382    0.532733    1.051061    0.121592    21.999163    4.259618    17.542755    -12.813836    -0.901082    13.917768    3.054933    8.781155    -14.410147    -33.570339    7.397622    -34.501125    38.795376    -45.743477    -42.866199    -17.685307    -29.216068    -31.573215    -4.420107    3.900991    -3.855381    36.709274    8.567011    75.515800    4.753621    -9.301400    95.385155    7.562889    -13.170584    19.273945    16.397974    -21.136364    0.961603    -14.858026    23.595892    -3.904626    -0.437161    -6.314582    36.793980    0.000000    0.000000    0.000000    -12.934296    -0.397430    -4.365166    4.581148    16.096630    -1.876332    20.568291    3.711100    -11.721653    0.000000    0.000000    0.000000    
12.412396    163.310928    -1.002257    -0.489659    6.980027    -37.899197    0.760399    0.457163    0.345319    0.509936    1.057575    0.109988    21.971972    4.283178    17.528057    -12.837712    -0.914618    13.905241    3.015964    8.800276    -14.413438    -33.500362    7.400379    -34.518124    38.913509    -45.740959    -42.687229    -17.786140    -29.197163    -31.632034    -4.473198    3.882778    -3.844407    36.680168    8.644713    75.571045    4.740068    -9.352242    95.388374    7.582873    -13.203567    19.270239    16.527699    -21.153187    0.991531    -14.958652    23.561693    -3.975029    -0.529324    -6.277916    36.835052    0.000000    0.000000    0.000000    -12.869289    -0.275395    -4.456710    4.620630    16.139338    -1.847236    20.553074    3.076367    -11.662816    0.000000    0.000000    0.000000    
12.158819    163.185928    -1.469202    -0.449763    6.907167    -37.858784    0.700397    0.719702    0.437762    0.489842    0.659711    0.143316    22.004765    4.118374    17.446264    -12.757174    -0.627116    13.826013    3.007282    8.909491    -14.482373    -33.628159    7.169945    -34.508335    38.460930    -45.592350    -43.119385    -17.688551    -29.061373    -31.609629    -4.387321    4.106057    -4.176799    36.656284    8.708692    75.821800    4.846791    -9.214244    95.424370    7.553508    -13.189598    19.279413    16.659903    -21.242371    1.087827    -14.978571    23.629147    -4.006549    -0.698765    -6.255158    36.814629    0.000000    0.000000    0.000000    -12.769934    -0.236053    -4.644136    4.580237    16.229567    -1.832521    20.475817    2.510545    -11.469123    0.000000    0.000000    0.000000    
11.887415    163.068466    -1.937354    -0.448956    6.849632    -37.780079    0.731258    0.753029    0.379576    0.432509    0.628210    0.124187    21.905994    4.130845    17.443233    -12.665672    -0.647944    13.847843    2.975634    8.924450    -14.398046    -33.593281    7.126280    -34.526184    38.360260    -45.572136    -43.154518    -17.605295    -29.091175    -31.563292    -4.448961    4.064651    -4.118851    36.660885    8.804421    75.846748    4.844081    -9.213373    95.467712    7.514532    -13.199469    19.229519    16.816313    -21.344027    1.194127    -14.936356    23.659023    -4.053748    -0.940105    -6.153488    36.771465    0.000000    0.000000    0.000000    -12.634661    -0.150820    -4.805665    4.593900    16.258530    -1.865191    20.413906    1.976103    -11.288584    0.000000    0.000000    0.000000    
